<svg width="35" height="35" viewBox="0 0 35 35" fill="none" xmlns="http://www.w3.org/2000/svg">
<mask id="mask0_1048_2341" style="mask-type:alpha" maskUnits="userSpaceOnUse" x="0" y="0" width="35" height="35">
<rect width="35" height="35" fill="#D9D9D9"/>
</mask>
<g mask="url(#mask0_1048_2341)">
<path d="M9.0362 25.4982C10.2758 24.6065 11.5911 23.9012 12.9821 23.3826C14.3731 22.8636 15.8791 22.6042 17.5 22.6042C19.1209 22.6042 20.6269 22.8636 22.0179 23.3826C23.4089 23.9012 24.7242 24.6065 25.9638 25.4982C26.9268 24.5017 27.7013 23.3248 28.2873 21.9676C28.8735 20.6101 29.1667 19.1209 29.1667 17.5C29.1667 14.2674 28.0304 11.5148 25.7578 9.24219C23.4852 6.96962 20.7326 5.83333 17.5 5.83333C14.2674 5.83333 11.5148 6.96962 9.24219 9.24219C6.96962 11.5148 5.83333 14.2674 5.83333 17.5C5.83333 19.1209 6.12646 20.6101 6.71271 21.9676C7.29872 23.3248 8.07321 24.5017 9.0362 25.4982ZM14.3912 16.963C13.5471 16.1188 13.125 15.0826 13.125 13.8542C13.125 12.6258 13.5471 11.5895 14.3912 10.7454C15.2353 9.90123 16.2716 9.47917 17.5 9.47917C18.7284 9.47917 19.7647 9.90123 20.6088 10.7454C21.4529 11.5895 21.875 12.6258 21.875 13.8542C21.875 15.0826 21.4529 16.1188 20.6088 16.963C19.7647 17.8071 18.7284 18.2292 17.5 18.2292C16.2716 18.2292 15.2353 17.8071 14.3912 16.963ZM17.5 30.625C15.6695 30.625 13.956 30.2842 12.3594 29.6027C10.7627 28.9212 9.37356 27.9897 8.19182 26.8082C7.01033 25.6264 6.07882 24.2373 5.39729 22.6406C4.71576 21.044 4.375 19.3305 4.375 17.5C4.375 15.6695 4.71576 13.956 5.39729 12.3594C6.07882 10.7627 7.01033 9.37356 8.19182 8.19182C9.37356 7.01033 10.7627 6.07882 12.3594 5.39729C13.956 4.71576 15.6695 4.375 17.5 4.375C19.3305 4.375 21.044 4.71576 22.6406 5.39729C24.2373 6.07882 25.6264 7.01033 26.8082 8.19182C27.9897 9.37356 28.9212 10.7627 29.6027 12.3594C30.2842 13.956 30.625 15.6695 30.625 17.5C30.625 19.3305 30.2842 21.044 29.6027 22.6406C28.9212 24.2373 27.9897 25.6264 26.8082 26.8082C25.6264 27.9897 24.2373 28.9212 22.6406 29.6027C21.044 30.2842 19.3305 30.625 17.5 30.625ZM21.4685 28.4612C22.7696 27.9911 23.8941 27.3475 24.842 26.5304C23.8941 25.7694 22.7975 25.1678 21.5523 24.7257C20.3072 24.2836 18.9564 24.0625 17.5 24.0625C16.0436 24.0625 14.6881 24.2789 13.4334 24.7118C12.179 25.1447 11.0872 25.7509 10.158 26.5304C11.1059 27.3475 12.2304 27.9911 13.5315 28.4612C14.8328 28.9315 16.1557 29.1667 17.5 29.1667C18.8443 29.1667 20.1672 28.9315 21.4685 28.4612ZM19.5727 15.9268C20.1353 15.3639 20.4167 14.673 20.4167 13.8542C20.4167 13.0353 20.1353 12.3444 19.5727 11.7815C19.0097 11.2188 18.3189 10.9375 17.5 10.9375C16.6811 10.9375 15.9903 11.2188 15.4273 11.7815C14.8647 12.3444 14.5833 13.0353 14.5833 13.8542C14.5833 14.673 14.8647 15.3639 15.4273 15.9268C15.9903 16.4895 16.6811 16.7708 17.5 16.7708C18.3189 16.7708 19.0097 16.4895 19.5727 15.9268Z" fill="#1F1F1F"/>
</g>
</svg>
