<svg width="20" height="20" viewBox="0 0 20 20" fill="none" xmlns="http://www.w3.org/2000/svg">
<mask id="mask0_1895_7761" style="mask-type:alpha" maskUnits="userSpaceOnUse" x="0" y="0" width="20" height="20">
<rect width="20" height="20" transform="matrix(-1 0 0 1 20 0)" fill="#D9D9D9"/>
</mask>
<g mask="url(#mask0_1895_7761)">
<path d="M12.346 9.99092L6.06872 16.2682C5.90317 16.4338 5.82247 16.6287 5.82664 16.853C5.83095 17.0774 5.91588 17.2724 6.08143 17.438C6.24713 17.6036 6.44213 17.6863 6.66643 17.6863C6.89074 17.6863 7.08574 17.6036 7.25143 17.438L13.6439 11.0582C13.7946 10.9075 13.9063 10.7387 13.9789 10.5518C14.0516 10.3648 14.0879 10.1779 14.0879 9.99092C14.0879 9.80397 14.0516 9.61703 13.9789 9.43008C13.9063 9.24314 13.7946 9.07432 13.6439 8.92363L7.25143 2.53092C7.08574 2.36536 6.88858 2.28474 6.65997 2.28904C6.43136 2.29335 6.23428 2.37828 6.06872 2.54383C5.90317 2.70939 5.82039 2.90439 5.82039 3.12883C5.82039 3.35314 5.90317 3.54807 6.06872 3.71363L12.346 9.99092Z" fill="#1F1F1F"/>
</g>
</svg>
