<svg width="126" height="126" viewBox="0 0 126 126" fill="none" xmlns="http://www.w3.org/2000/svg">
<circle cx="63" cy="63" r="62" fill="#F7F7F7" stroke="#D6D6D6" stroke-width="2"/>
<mask id="mask0_1048_2247" style="mask-type:luminance" maskUnits="userSpaceOnUse" x="38" y="37" width="50" height="52">
<path d="M88 37H38V88.5382H88V37Z" fill="white"/>
</mask>
<g mask="url(#mask0_1048_2247)">
<path d="M63.4437 72.5112C63.2816 74.7833 62.6334 77.0107 61.4382 78.9489C60.8385 79.9221 60.1417 80.7813 59.376 81.4939C57.9985 82.7724 56.3778 83.5787 54.6397 83.6967C52.9016 83.8149 51.1716 83.2244 49.6725 82.0762C48.6718 81.3066 47.7643 80.2967 46.9985 79.0996C45.467 76.7094 44.5028 73.5781 44.4501 70.1699C44.446 70.0681 44.446 69.9663 44.446 69.8604C44.446 69.7749 44.446 69.6853 44.4501 69.5998C44.4947 66.1916 45.4549 63.0521 46.9823 60.6497C47.748 59.4363 48.6637 58.4183 49.6725 57.6406C51.1716 56.4923 52.8732 55.8937 54.6397 56.0159C55.5148 56.077 56.3616 56.3132 57.1638 56.6959C58.7074 57.4329 60.5144 57.3555 61.6893 56.415L61.811 56.3172L62.5605 55.7186C62.8968 55.4499 62.8805 54.9694 62.528 54.664C60.8669 53.2266 58.9343 52.1679 56.7992 51.6142C56.163 51.4472 55.5068 51.325 54.8382 51.2558C54.7693 51.2477 54.7045 51.2396 54.6356 51.2314C54.5668 51.2232 54.5019 51.2192 54.433 51.2151C50.8718 50.9341 47.5252 52.0661 44.7783 54.2894C43.9031 54.9979 43.0969 55.8123 42.3595 56.7203C40.5566 58.9395 39.2196 61.7247 38.5308 64.8804C38.2999 65.9025 38.1419 66.9652 38.0608 68.0606C38.0122 68.651 37.9919 69.2496 37.9919 69.8563C37.9919 70.4631 38.0122 71.0616 38.0608 71.652C38.1459 72.7637 38.3039 73.8387 38.5348 74.877C39.2358 78.0246 40.5768 80.8016 42.3798 83.0209C43.1131 83.9208 43.9112 84.7269 44.7823 85.4233C47.5779 87.6832 51.0055 88.8152 54.6356 88.4731C55.3568 88.4039 56.0537 88.2858 56.7343 88.1107C59.1572 87.4918 61.3288 86.2254 63.1318 84.4867C65.4087 82.296 67.0536 79.4701 67.9247 76.4325C68.893 73.0487 68.4919 69.5265 69.0915 66.0898C69.5453 63.4756 70.7324 60.7475 72.7541 58.9721C73.9291 57.9419 75.2701 57.3963 76.6639 57.494C78.0576 57.5917 79.3338 58.3043 80.4237 59.4526C81.1327 60.1937 81.7607 61.1057 82.2833 62.1563C83.3205 64.2208 83.9566 66.8146 83.985 69.5794C83.985 69.6527 83.985 69.726 83.985 69.7993C83.985 69.8604 83.985 69.9214 83.985 69.9826C83.9606 72.7556 83.3286 75.3493 82.2955 77.422C81.7688 78.4807 81.1408 79.4091 80.4237 80.1501C79.3297 81.2943 78.0414 82.011 76.6639 82.1047C75.9832 82.1535 75.3106 82.0436 74.6664 81.8033C73.293 81.2862 71.6197 81.6975 70.5056 82.7847L69.9018 83.3751C69.5899 83.6805 69.606 84.1406 69.9302 84.3808C71.4333 85.5006 73.1228 86.1847 74.9176 86.3517C75.493 86.4087 76.0723 86.4087 76.6639 86.3517C79.4392 86.0911 81.8985 84.6415 83.7905 82.4223C84.3618 81.7586 84.8804 81.0296 85.3422 80.2397C86.4605 78.3381 87.2708 76.0783 87.68 73.6025C87.8826 72.385 87.9879 71.1104 87.9879 69.7953C87.9879 68.48 87.8785 67.1811 87.6718 65.9554C87.2586 63.4838 86.4443 61.2279 85.326 59.3264C84.8642 58.5445 84.3537 57.8238 83.7905 57.1682C81.9268 54.9898 79.5323 53.5523 76.8178 53.2551C76.7651 53.247 76.7125 53.2429 76.6598 53.2388C76.6072 53.2347 76.5585 53.2307 76.5018 53.2266C75.9832 53.1859 75.4727 53.1859 74.9703 53.2307C72.9324 53.4099 71.0201 54.2568 69.367 55.6535C67.7059 57.0542 66.3122 58.9924 65.3155 61.3297C65.2831 61.4112 65.2466 61.4926 65.2142 61.5781C65.1939 61.6229 65.1737 61.6718 65.1535 61.7207C65.1413 61.7532 65.1291 61.7817 65.117 61.8143C65.117 61.8265 65.1089 61.8347 65.1048 61.8469C65.1048 61.8591 65.0926 61.8754 65.0886 61.8876C64.2823 63.9602 63.788 66.3097 63.6909 68.8261L63.4275 72.5071L63.4437 72.5112Z" fill="#D6D6D6"/>
<path d="M52.0343 46.3002C54.5896 46.3002 56.6612 44.2183 56.6612 41.6501C56.6612 39.0819 54.5896 37 52.0343 37C49.4789 37 47.4075 39.0819 47.4075 41.6501C47.4075 44.2183 49.4789 46.3002 52.0343 46.3002Z" fill="#D6D6D6"/>
<path d="M77.02 48.3485C79.2419 48.3485 81.0432 46.5382 81.0432 44.3051C81.0432 42.072 79.2419 40.2617 77.02 40.2617C74.798 40.2617 72.9968 42.072 72.9968 44.3051C72.9968 46.5382 74.798 48.3485 77.02 48.3485Z" fill="#D6D6D6"/>
</g>
</svg>
