<svg width="25" height="25" viewBox="0 0 25 25" fill="none" xmlns="http://www.w3.org/2000/svg">
<mask id="mask0_3150_9119" style="mask-type:alpha" maskUnits="userSpaceOnUse" x="0" y="0" width="25" height="25">
<rect width="25" height="25" fill="#D9D9D9"/>
</mask>
<g mask="url(#mask0_3150_9119)">
<path d="M9.91693 16.2655C8.13811 16.2655 6.63168 15.6486 5.39766 14.4147C4.1638 13.1807 3.54688 11.6743 3.54688 9.89544C3.54688 8.11662 4.1638 6.6102 5.39766 5.37617C6.63168 4.14232 8.13811 3.52539 9.91693 3.52539C11.6957 3.52539 13.2022 4.14232 14.4362 5.37617C15.6701 6.6102 16.287 8.11662 16.287 9.89544C16.287 10.6394 16.1622 11.3499 15.9125 12.027C15.6627 12.704 15.3294 13.2929 14.9128 13.7936L20.9065 19.7874C21.0508 19.9315 21.1246 20.1127 21.1279 20.3311C21.1312 20.5495 21.0574 20.7342 20.9065 20.885C20.7556 21.0359 20.5727 21.1113 20.3576 21.1113C20.1426 21.1113 19.9597 21.0359 19.8089 20.885L13.8151 14.8913C13.2943 15.3213 12.6953 15.6579 12.0182 15.9009C11.3411 16.144 10.6407 16.2655 9.91693 16.2655ZM9.91693 14.7033C11.2591 14.7033 12.3959 14.2375 13.3273 13.3059C14.2589 12.3744 14.7247 11.2376 14.7247 9.89544C14.7247 8.55325 14.2589 7.41645 13.3273 6.48503C12.3959 5.55343 11.2591 5.08763 9.91693 5.08763C8.57474 5.08763 7.43793 5.55343 6.50651 6.48503C5.57491 7.41645 5.10911 8.55325 5.10911 9.89544C5.10911 11.2376 5.57491 12.3744 6.50651 13.3059C7.43793 14.2375 8.57474 14.7033 9.91693 14.7033Z" fill="#9E9E9E"/>
</g>
</svg>
